<svg xmlns="http://www.w3.org/2000/svg" viewBox="0 0 65 65"><defs><style>.a{fill:#fff;}.b{fill:#58595b;}.c,.d{stroke:none;}.d{fill:#00c7b1;}</style></defs><g transform="translate(-328 -524)"><g transform="translate(284 68)"><g class="a" transform="translate(44 456)"><path class="c" d="M 32.5 64.25 C 28.21344947814941 64.25 24.05550956726074 63.41064071655273 20.14170074462891 61.75522994995117 C 16.36101913452148 60.1561393737793 12.96547031402588 57.86674880981445 10.04936027526855 54.95064163208008 C 7.13325023651123 52.03453063964844 4.843860149383545 48.63898086547852 3.244770050048828 44.85829925537109 C 1.589359998703003 40.94448852539062 0.75 36.78654861450195 0.75 32.5 C 0.75 28.21344947814941 1.589359998703003 24.05550956726074 3.244770050048828 20.14170074462891 C 4.843860149383545 16.36101913452148 7.13325023651123 12.96547031402588 10.04936027526855 10.04936027526855 C 12.96547031402588 7.13325023651123 16.36101913452148 4.843860149383545 20.14170074462891 3.244770050048828 C 24.05550956726074 1.589359998703003 28.21344947814941 0.75 32.5 0.75 C 36.78654861450195 0.75 40.94448852539062 1.589359998703003 44.85829925537109 3.244770050048828 C 48.63898086547852 4.843860149383545 52.03453063964844 7.13325023651123 54.95064163208008 10.04936027526855 C 57.86674880981445 12.96547031402588 60.1561393737793 16.36101913452148 61.75522994995117 20.14170074462891 C 63.41064071655273 24.05550956726074 64.25 28.21344947814941 64.25 32.5 C 64.25 36.78654861450195 63.41064071655273 40.94448852539062 61.75522994995117 44.85829925537109 C 60.1561393737793 48.63898086547852 57.86674880981445 52.03453063964844 54.95064163208008 54.95064163208008 C 52.03453063964844 57.86674880981445 48.63898086547852 60.1561393737793 44.85829925537109 61.75522994995117 C 40.94448852539062 63.41064071655273 36.78654861450195 64.25 32.5 64.25 Z"/><path class="d" d="M 32.5 1.5 C 28.31436920166016 1.5 24.25473022460938 2.319431304931641 20.43386077880859 3.935520172119141 C 16.74258041381836 5.496799468994141 13.42715835571289 7.732219696044922 10.57968902587891 10.57968902587891 C 7.732219696044922 13.42715835571289 5.496799468994141 16.74258041381836 3.935520172119141 20.43386077880859 C 2.319431304931641 24.25473022460938 1.5 28.31436920166016 1.5 32.5 C 1.5 36.68563079833984 2.319431304931641 40.74526977539062 3.935520172119141 44.56613922119141 C 5.496799468994141 48.25741958618164 7.732219696044922 51.57283782958984 10.57968902587891 54.42031097412109 C 13.42715835571289 57.26778030395508 16.74258041381836 59.50320053100586 20.43386077880859 61.06447982788086 C 24.25473022460938 62.68056869506836 28.31436920166016 63.5 32.5 63.5 C 36.68563079833984 63.5 40.74526977539062 62.68056869506836 44.56613922119141 61.06447982788086 C 48.25741958618164 59.50320053100586 51.57283782958984 57.26778030395508 54.42031097412109 54.42031097412109 C 57.26778030395508 51.57283782958984 59.50320053100586 48.25741958618164 61.06447982788086 44.56613922119141 C 62.68056869506836 40.74526977539062 63.5 36.68563079833984 63.5 32.5 C 63.5 28.31436920166016 62.68056869506836 24.25473022460938 61.06447982788086 20.43386077880859 C 59.50320053100586 16.74258041381836 57.26778030395508 13.42715835571289 54.42031097412109 10.57968902587891 C 51.57283782958984 7.732219696044922 48.25741958618164 5.496799468994141 44.56613922119141 3.935520172119141 C 40.74526977539062 2.319431304931641 36.68563079833984 1.5 32.5 1.5 M 32.5 0 C 50.44924926757812 0 65 14.55075073242188 65 32.5 C 65 50.44924926757812 50.44924926757812 65 32.5 65 C 14.55075073242188 65 0 50.44924926757812 0 32.5 C 0 14.55075073242188 14.55075073242188 0 32.5 0 Z"/></g></g><g transform="translate(335.961 534)"><g transform="translate(9.039 1)"><circle class="b" cx="4.407" cy="4.407" r="4.407" transform="translate(10.896)"/><path class="b" d="M38.516,1.519a1.864,1.864,0,0,0-2.637,0L26.935,10.46a4.513,4.513,0,0,0-5.415.356l-9.3-9.3A1.865,1.865,0,1,0,9.585,4.157l9.8,9.8a1.864,1.864,0,0,0,.55.375V24.916a4.53,4.53,0,0,0,.056.674,1.861,1.861,0,0,0-.054.431V42.542a1.866,1.866,0,1,0,3.731,0V29.371a4.287,4.287,0,0,0,1.6,0V42.543a1.866,1.866,0,1,0,3.731,0V26.02a1.908,1.908,0,0,0-.056-.436,4.575,4.575,0,0,0,.054-.67V14.254a4.6,4.6,0,0,0-.035-.542l9.554-9.556A1.864,1.864,0,0,0,38.516,1.519Z" transform="translate(-9.039 -0.21)"/></g></g></g></svg>