<svg xmlns="http://www.w3.org/2000/svg" viewBox="0 0 65 65"><defs><style>.a{fill:#fff;stroke:#00c7b1;stroke-width:1.5px;}.b{fill:#59595b;}.c{fill:#ff6a39;}.d{stroke:none;}.e{fill:none;}</style></defs><g transform="translate(-77 -412)"><g transform="translate(33 -44)"><g class="a" transform="translate(44 456)"><circle class="d" cx="32.5" cy="32.5" r="32.5"/><circle class="e" cx="32.5" cy="32.5" r="31.75"/></g></g><g transform="translate(84.31 419.31)"><ellipse class="b" cx="1.626" cy="1.626" rx="1.626" ry="1.626" transform="translate(23.574 5.69)"/><ellipse class="b" cx="1.626" cy="1.626" rx="1.626" ry="1.626" transform="translate(41.458 23.574)"/><ellipse class="b" cx="1.626" cy="1.626" rx="1.626" ry="1.626" transform="translate(23.574 41.458)"/><ellipse class="b" cx="1.626" cy="1.626" rx="1.626" ry="1.626" transform="translate(5.69 23.574)"/><path class="c" d="M36.62,35.471a4.914,4.914,0,0,1-1.149,1.149L43.455,44.6,44.6,43.455Z" transform="translate(-7.449 -7.449)"/><path class="b" d="M32.324,28.362,39.285,21.4a1.626,1.626,0,0,0-2.3-2.3l-6.961,6.961a2.911,2.911,0,0,0-1.663,0l-8.587-8.587a1.626,1.626,0,0,0-2.3,2.3l8.587,8.587a3.252,3.252,0,1,0,6.261,0Z" transform="translate(-3.994 -3.994)"/></g></g></svg>