<svg xmlns="http://www.w3.org/2000/svg" viewBox="0 0 65 65"><defs><style>.a{fill:#fff;stroke:#00c7b1;stroke-width:1.5px;}.b{fill:#58595b;}.c{stroke:none;}.d{fill:none;}</style></defs><g transform="translate(-321 -385)"><g class="a" transform="translate(321 385)"><circle class="c" cx="32.5" cy="32.5" r="32.5"/><circle class="d" cx="32.5" cy="32.5" r="31.75"/></g><g transform="translate(334 394.339)"><g transform="translate(0 3.661)"><circle class="b" cx="3.933" cy="3.933" r="3.933" transform="translate(8.812)"/><path class="b" d="M63.447,72.314l-1.479-1.188a.777.777,0,1,0-.973,1.211L62.5,73.549v3.3c0,.016-1.323,2.607-1.323,2.607a.777.777,0,1,0,1.378.717L63.9,77.6l1.5,2.6a.777.777,0,0,0,1.347-.776l-1.306-2.267h4.835v2.655a.777.777,0,1,0,1.554,0V76.873a.215.215,0,0,0,.006-.027V74.39l-3.618-2.074H63.447Z" transform="translate(-37.021 -44.701)"/><path class="b" d="M86.191,64.952c-.48-.453-.642-.982-1.181-1.365-.094-.066-.189-.135-.289-.191a.124.124,0,0,1-.073-.138c.023-.223.045-.446.063-.669a1.071,1.071,0,0,0-.4-1c-.129-.1-.764-.4-1.041.651a3.191,3.191,0,0,1-.252.666,22.22,22.22,0,0,1-1.392,2.184l-.664.977L84.357,68s.655-.716.747-.675c.127.057.255.111.383.167a2.528,2.528,0,0,0,1.173.215,1.425,1.425,0,0,0,1.484-1.243C88.205,65.7,86.353,65.1,86.191,64.952Z" transform="translate(-49.375 -38.919)"/><path class="b" d="M24.157,35.683l6.413,6.945.6-.557-6.416-6.948c-1.961-2.084-3.685-3.766-4.925-3.242a1.153,1.153,0,0,0-.156.081c-2.929-.4-3.549-1.765-4.487-3.826a12.537,12.537,0,0,0-2.118-3.5c-.007-.008-.017-.014-.025-.022a4.153,4.153,0,0,0-1.25-.938,3.158,3.158,0,0,0-.812-.291,6.221,6.221,0,0,0-1.585,0c-4.8.7-6.924,4.245-8.976,7.683l-.21.352a1.527,1.527,0,1,0,2.621,1.567l.211-.354a20.653,20.653,0,0,1,3.2-4.476L4.961,34.165a2.742,2.742,0,0,0,.522,2.247l-.395,6.023-2.51,6.489a1.943,1.943,0,1,0,3.624,1.4L8.82,43.559a1.945,1.945,0,0,0,.127-.574l.23-3.507,2.309,3.649,1.89,6.957a1.942,1.942,0,0,0,1.876,1.442,1.979,1.979,0,0,0,.5-.066,1.943,1.943,0,0,0,1.377-2.378l-1.967-7.245a1.94,1.94,0,0,0-.236-.538l-3.144-4.968a2.732,2.732,0,0,0,.233-.658l1.052-4.91A7.378,7.378,0,0,0,18.755,34.9q0,.375.018.8l.821-.038c-.011-.242-.016-.46-.016-.665A1.514,1.514,0,0,0,20.8,32.726,15.429,15.429,0,0,1,24.157,35.683Z" transform="translate(0 -15.655)"/></g></g></g></svg>